<?xml version="1.0" encoding="UTF-8" standalone="no"?><!-- Generator: Gravit.io --><svg xmlns="http://www.w3.org/2000/svg" xmlns:xlink="http://www.w3.org/1999/xlink" style="isolation:isolate" viewBox="0 0 2358.804 806.5" width="2358.804pt" height="806.5pt"><path d=" M 343.762 186.763 L 204.318 186.763 L 195.526 237.013 L 317.801 237.013 L 304.758 311.55 L 182.483 311.55 L 166.07 405.35 L 67.245 405.35 L 118.536 112.225 L 356.804 112.225 L 343.762 186.763 L 343.762 186.763 Z  M 455.59 201 L 455.59 201 Q 485.77 172.106 534.764 172.106 L 534.764 172.106 L 520.11 255.856 L 520.11 255.856 Q 509.097 254.181 499.465 254.181 L 499.465 254.181 L 499.465 254.181 Q 450.89 254.181 442.244 303.594 L 442.244 303.594 L 424.439 405.35 L 329.802 405.35 L 369.881 176.294 L 459.913 176.294 L 455.59 201 L 455.59 201 Z  M 782.447 290.613 L 782.447 290.613 Q 782.081 292.706 777.307 312.806 L 777.307 312.806 L 618.182 312.806 L 618.182 312.806 Q 620.936 325.788 631.452 332.697 L 631.452 332.697 L 631.452 332.697 Q 641.968 339.606 659.555 339.606 L 659.555 339.606 L 659.555 339.606 Q 674.63 339.606 685.549 335.838 L 685.549 335.838 L 685.549 335.838 Q 696.468 332.069 710.224 322.856 L 710.224 322.856 L 750.917 372.688 L 750.917 372.688 Q 710.969 409.538 644.388 409.538 L 644.388 409.538 L 644.388 409.538 Q 602.931 409.538 574.2 394.253 L 574.2 394.253 L 574.2 394.253 Q 545.468 378.969 533.062 351.75 L 533.062 351.75 L 533.062 351.75 Q 520.656 324.531 526.591 290.613 L 526.591 290.613 L 526.591 290.613 Q 532.599 256.275 554.284 229.266 L 554.284 229.266 L 554.284 229.266 Q 575.97 202.256 608.129 187.181 L 608.129 187.181 L 608.129 187.181 Q 640.289 172.106 677.139 172.106 L 677.139 172.106 L 677.139 172.106 Q 711.895 172.106 738.162 185.925 L 738.162 185.925 L 738.162 185.925 Q 764.428 199.744 776.698 226.544 L 776.698 226.544 L 776.698 226.544 Q 788.968 253.344 782.447 290.613 L 782.447 290.613 L 782.447 290.613 Z  M 666.693 236.594 L 666.693 236.594 Q 652.036 236.594 641.013 244.55 L 641.013 244.55 L 641.013 244.55 Q 629.99 252.506 624.494 267.163 L 624.494 267.163 L 698.194 267.163 L 698.194 267.163 Q 697.754 252.925 689.551 244.759 L 689.551 244.759 L 689.551 244.759 Q 681.349 236.594 666.693 236.594 L 666.693 236.594 L 666.693 236.594 Z  M 1055.891 290.613 L 1055.891 290.613 Q 1055.524 292.706 1050.751 312.806 L 1050.751 312.806 L 891.626 312.806 L 891.626 312.806 Q 894.38 325.788 904.896 332.697 L 904.896 332.697 L 904.896 332.697 Q 915.412 339.606 932.999 339.606 L 932.999 339.606 L 932.999 339.606 Q 948.074 339.606 958.993 335.838 L 958.993 335.838 L 958.993 335.838 Q 969.912 332.069 983.667 322.856 L 983.667 322.856 L 1024.361 372.688 L 1024.361 372.688 Q 984.413 409.538 917.831 409.538 L 917.831 409.538 L 917.831 409.538 Q 876.375 409.538 847.643 394.253 L 847.643 394.253 L 847.643 394.253 Q 818.912 378.969 806.505 351.75 L 806.505 351.75 L 806.505 351.75 Q 794.099 324.531 800.034 290.613 L 800.034 290.613 L 800.034 290.613 Q 806.043 256.275 827.728 229.266 L 827.728 229.266 L 827.728 229.266 Q 849.413 202.256 881.573 187.181 L 881.573 187.181 L 881.573 187.181 Q 913.733 172.106 950.583 172.106 L 950.583 172.106 L 950.583 172.106 Q 985.339 172.106 1011.605 185.925 L 1011.605 185.925 L 1011.605 185.925 Q 1037.872 199.744 1050.142 226.544 L 1050.142 226.544 L 1050.142 226.544 Q 1062.412 253.344 1055.891 290.613 L 1055.891 290.613 L 1055.891 290.613 Z  M 940.136 236.594 L 940.136 236.594 Q 925.48 236.594 914.457 244.55 L 914.457 244.55 L 914.457 244.55 Q 903.433 252.506 897.938 267.163 L 897.938 267.163 L 971.638 267.163 L 971.638 267.163 Q 971.198 252.925 962.995 244.759 L 962.995 244.759 L 962.995 244.759 Q 954.793 236.594 940.136 236.594 L 940.136 236.594 L 940.136 236.594 Z  M 1065.545 405.35 L 1119.913 94.638 L 1214.551 94.638 L 1160.183 405.35 L 1065.545 405.35 L 1065.545 405.35 Z  M 1345.464 172.106 L 1345.464 172.106 Q 1405.764 172.106 1432.863 199.116 L 1432.863 199.116 L 1432.863 199.116 Q 1459.962 226.125 1450.144 282.238 L 1450.144 282.238 L 1428.602 405.35 L 1340.664 405.35 L 1345.94 375.2 L 1345.94 375.2 Q 1323.6 409.538 1275.025 409.538 L 1275.025 409.538 L 1275.025 409.538 Q 1247.806 409.538 1230.402 400.116 L 1230.402 400.116 L 1230.402 400.116 Q 1212.997 390.694 1205.978 374.572 L 1205.978 374.572 L 1205.978 374.572 Q 1198.958 358.45 1202.475 338.35 L 1202.475 338.35 L 1202.475 338.35 Q 1208.41 304.431 1237.45 286.844 L 1237.45 286.844 L 1237.45 286.844 Q 1266.49 269.256 1319.252 269.256 L 1319.252 269.256 L 1357.359 269.256 L 1357.359 269.256 Q 1357.442 242.456 1318.917 242.456 L 1318.917 242.456 L 1318.917 242.456 Q 1303.423 242.456 1286.668 247.272 L 1286.668 247.272 L 1286.668 247.272 Q 1269.913 252.088 1257.141 260.463 L 1257.141 260.463 L 1237.909 198.069 L 1237.909 198.069 Q 1259.715 185.925 1288.771 179.016 L 1288.771 179.016 L 1288.771 179.016 Q 1317.827 172.106 1345.464 172.106 L 1345.464 172.106 L 1345.464 172.106 Z  M 1313.465 352.588 L 1313.465 352.588 Q 1323.515 352.588 1332.424 347.144 L 1332.424 347.144 L 1332.424 347.144 Q 1341.333 341.7 1347.007 330.813 L 1347.007 330.813 L 1349.791 314.9 L 1326.341 314.9 L 1326.341 314.9 Q 1297.447 314.9 1294.077 334.163 L 1294.077 334.163 L 1294.077 334.163 Q 1292.684 342.119 1297.84 347.353 L 1297.84 347.353 L 1297.84 347.353 Q 1302.996 352.588 1313.465 352.588 L 1313.465 352.588 L 1313.465 352.588 Z  M 1669.577 172.106 L 1669.577 172.106 Q 1711.87 172.106 1733.154 197.65 L 1733.154 197.65 L 1733.154 197.65 Q 1754.437 223.194 1745.425 274.7 L 1745.425 274.7 L 1722.564 405.35 L 1627.927 405.35 L 1647.93 291.031 L 1647.93 291.031 Q 1654.817 251.669 1626.761 251.669 L 1626.761 251.669 L 1626.761 251.669 Q 1610.849 251.669 1599.066 262.766 L 1599.066 262.766 L 1599.066 262.766 Q 1587.284 273.863 1583.107 297.731 L 1583.107 297.731 L 1564.277 405.35 L 1469.639 405.35 L 1509.719 176.294 L 1599.75 176.294 L 1595.793 198.906 L 1595.793 198.906 Q 1611.538 185.506 1630.298 178.806 L 1630.298 178.806 L 1630.298 178.806 Q 1649.058 172.106 1669.577 172.106 L 1669.577 172.106 L 1669.577 172.106 Z  M 1890.169 409.538 L 1890.169 409.538 Q 1851.225 409.538 1823.085 394.463 L 1823.085 394.463 L 1823.085 394.463 Q 1794.944 379.388 1782.329 352.169 L 1782.329 352.169 L 1782.329 352.169 Q 1769.714 324.95 1775.722 290.613 L 1775.722 290.613 L 1775.722 290.613 Q 1781.73 256.275 1803.834 229.266 L 1803.834 229.266 L 1803.834 229.266 Q 1825.938 202.256 1859.354 187.181 L 1859.354 187.181 L 1859.354 187.181 Q 1892.77 172.106 1931.714 172.106 L 1931.714 172.106 L 1931.714 172.106 Q 1973.589 172.106 2000.17 190.113 L 2000.17 190.113 L 2000.17 190.113 Q 2026.75 208.119 2032.488 239.944 L 2032.488 239.944 L 1952.905 275.956 L 1952.905 275.956 Q 1944.781 245.806 1918.399 245.806 L 1918.399 245.806 L 1918.399 245.806 Q 1901.649 245.806 1888.501 257.531 L 1888.501 257.531 L 1888.501 257.531 Q 1875.352 269.256 1871.616 290.613 L 1871.616 290.613 L 1871.616 290.613 Q 1867.805 312.388 1876.851 324.113 L 1876.851 324.113 L 1876.851 324.113 Q 1885.896 335.838 1902.646 335.838 L 1902.646 335.838 L 1902.646 335.838 Q 1929.027 335.838 1947.703 305.688 L 1947.703 305.688 L 2014.683 341.7 L 2014.683 341.7 Q 1997.808 373.525 1964.926 391.531 L 1964.926 391.531 L 1964.926 391.531 Q 1932.044 409.538 1890.169 409.538 L 1890.169 409.538 L 1890.169 409.538 Z  M 2287.016 290.613 L 2287.016 290.613 Q 2286.649 292.706 2281.876 312.806 L 2281.876 312.806 L 2122.751 312.806 L 2122.751 312.806 Q 2125.505 325.788 2136.021 332.697 L 2136.021 332.697 L 2136.021 332.697 Q 2146.537 339.606 2164.124 339.606 L 2164.124 339.606 L 2164.124 339.606 Q 2179.199 339.606 2190.118 335.838 L 2190.118 335.838 L 2190.118 335.838 Q 2201.037 332.069 2214.792 322.856 L 2214.792 322.856 L 2255.486 372.688 L 2255.486 372.688 Q 2215.538 409.538 2148.956 409.538 L 2148.956 409.538 L 2148.956 409.538 Q 2107.5 409.538 2078.768 394.253 L 2078.768 394.253 L 2078.768 394.253 Q 2050.037 378.969 2037.63 351.75 L 2037.63 351.75 L 2037.63 351.75 Q 2025.224 324.531 2031.159 290.613 L 2031.159 290.613 L 2031.159 290.613 Q 2037.168 256.275 2058.853 229.266 L 2058.853 229.266 L 2058.853 229.266 Q 2080.538 202.256 2112.698 187.181 L 2112.698 187.181 L 2112.698 187.181 Q 2144.858 172.106 2181.708 172.106 L 2181.708 172.106 L 2181.708 172.106 Q 2216.464 172.106 2242.73 185.925 L 2242.73 185.925 L 2242.73 185.925 Q 2268.997 199.744 2281.267 226.544 L 2281.267 226.544 L 2281.267 226.544 Q 2293.537 253.344 2287.016 290.613 L 2287.016 290.613 L 2287.016 290.613 Z  M 2171.261 236.594 L 2171.261 236.594 Q 2156.605 236.594 2145.582 244.55 L 2145.582 244.55 L 2145.582 244.55 Q 2134.558 252.506 2129.063 267.163 L 2129.063 267.163 L 2202.763 267.163 L 2202.763 267.163 Q 2202.323 252.925 2194.12 244.759 L 2194.12 244.759 L 2194.12 244.759 Q 2185.918 236.594 2171.261 236.594 L 2171.261 236.594 L 2171.261 236.594 Z " fill="rgb(255,255,255)"/><path d=" M 218.64 451.36 C 225.7 451.36 232.75 451.75 239.76 452.54 C 245.45 453.18 251.1 454.21 256.65 455.62 C 261.34 456.81 265.93 458.33 270.41 460.15 C 274.33 461.75 278.11 463.64 281.73 465.83 C 283.73 467.04 285.67 468.35 287.55 469.75 C 289.31 471.06 290.99 472.46 292.6 473.95 C 294.15 475.37 295.61 476.88 297 478.46 C 298.36 480 299.64 481.62 300.83 483.3 C 302.02 484.98 303.12 486.73 304.13 488.53 C 305.16 490.38 306.1 492.29 306.94 494.24 C 307.82 496.28 308.59 498.37 309.26 500.5 C 309.97 502.79 310.58 505.1 311.07 507.45 C 311.61 510.05 312.01 512.68 312.27 515.32 C 312.49 517.53 312.56 519.75 312.48 521.96 C 312.42 523.88 312.23 525.79 311.92 527.69 C 311.65 529.38 311.25 531.05 310.73 532.68 C 310.24 534.22 309.64 535.73 308.93 537.19 C 308.23 538.61 307.44 539.98 306.54 541.28 C 305.62 542.62 304.6 543.89 303.49 545.07 C 302.3 546.35 301.01 547.55 299.65 548.65 C 299.02 549.16 298.37 549.66 297.71 550.13 C 297.02 550.63 296.31 551.11 295.6 551.57 C 292.93 553.27 290.12 554.72 287.2 555.91 C 283.52 557.4 279.73 558.62 275.87 559.55 C 274.78 559.82 273.68 560.07 272.57 560.29 C 271.39 560.54 270.2 560.76 269.01 560.96 C 265.18 561.62 261.33 562.09 257.46 562.38 C 252.67 562.75 247.87 562.93 243.06 562.93 L 141.6 562.93 L 118.23 451.36 L 218.64 451.36 L 218.64 451.36 Z  M 170.75 702.06 L 146.5 586.31 L 256.44 586.31 C 264.41 586.31 272.38 586.72 280.31 587.54 C 286.56 588.18 292.76 589.22 298.87 590.66 C 303.84 591.84 308.74 593.33 313.52 595.15 C 317.54 596.67 321.43 598.49 325.17 600.61 C 327.24 601.78 329.24 603.06 331.18 604.44 C 333 605.74 334.75 607.14 336.42 608.63 C 338.04 610.07 339.58 611.6 341.04 613.21 C 342.48 614.81 343.83 616.49 345.09 618.24 C 346.36 620.01 347.54 621.86 348.62 623.76 C 349.74 625.75 350.76 627.8 351.67 629.9 C 352.64 632.14 353.49 634.42 354.21 636.75 C 355.01 639.3 355.68 641.88 356.23 644.49 C 356.81 647.27 357.24 650.08 357.52 652.9 C 357.75 655.23 357.83 657.58 357.76 659.92 C 357.7 661.93 357.51 663.93 357.19 665.91 C 356.9 667.66 356.49 669.38 355.96 671.07 C 355.44 672.72 354.79 674.32 354.03 675.87 C 353.29 677.37 352.43 678.8 351.46 680.16 C 350.47 681.55 349.37 682.86 348.18 684.08 C 346.88 685.4 345.5 686.62 344.02 687.73 C 343.29 688.29 342.53 688.82 341.76 689.33 C 340.94 689.88 340.1 690.4 339.25 690.89 C 338.58 691.27 337.91 691.64 337.24 692 C 336.52 692.37 335.8 692.73 335.06 693.08 C 332.57 694.25 330 695.27 327.37 696.13 C 324.14 697.18 320.87 698.07 317.55 698.79 C 316.34 699.05 315.13 699.29 313.91 699.51 C 312.6 699.75 311.28 699.97 309.97 700.17 C 305.81 700.8 301.62 701.25 297.42 701.53 C 292.2 701.88 286.97 702.06 281.74 702.06 L 170.75 702.06 L 170.75 702.06 Z  M 553.93 703.31 C 549.71 703.31 545.49 703.07 541.3 702.58 C 537.24 702.11 533.21 701.4 529.24 700.45 C 525.27 699.5 521.37 698.32 517.55 696.91 C 513.63 695.46 509.79 693.78 506.07 691.89 C 502.35 690 498.74 687.91 495.25 685.62 C 491.81 683.37 488.49 680.92 485.32 678.29 C 482.1 675.64 479.03 672.8 476.13 669.8 C 473.12 666.69 470.27 663.41 467.6 659.99 C 464.98 656.62 462.55 653.11 460.33 649.47 C 458.13 645.87 456.14 642.14 454.37 638.31 C 452.57 634.42 451 630.42 449.66 626.35 C 448.27 622.09 447.11 617.77 446.19 613.38 C 445.23 608.82 444.56 604.2 444.16 599.56 C 443.82 595.56 443.76 591.54 443.98 587.53 C 444.18 583.93 444.63 580.35 445.33 576.81 C 445.98 573.52 446.88 570.27 448.02 567.11 C 449.23 563.76 450.7 560.5 452.42 557.37 C 454.02 554.47 455.85 551.7 457.9 549.1 C 459.93 546.55 462.16 544.16 464.58 541.98 C 467.11 539.7 469.82 537.62 472.68 535.78 C 475.43 534 478.31 532.44 481.3 531.1 C 484.46 529.7 487.73 528.52 491.06 527.59 C 494.73 526.56 498.48 525.8 502.26 525.31 C 506.63 524.76 511.02 524.48 515.42 524.48 C 519.64 524.48 523.86 524.72 528.05 525.21 C 532.11 525.68 536.14 526.39 540.12 527.34 C 544.08 528.29 547.98 529.47 551.8 530.88 C 555.72 532.33 559.56 534.01 563.29 535.9 C 567 537.79 570.61 539.88 574.1 542.17 C 577.55 544.42 580.86 546.87 584.04 549.49 C 587.25 552.15 590.32 554.99 593.22 557.99 C 596.24 561.1 599.09 564.38 601.75 567.8 C 604.38 571.17 606.81 574.68 609.03 578.32 C 611.23 581.92 613.21 585.65 614.98 589.48 C 616.78 593.37 618.35 597.37 619.69 601.44 C 621.09 605.7 622.25 610.02 623.16 614.41 C 624.12 618.97 624.8 623.59 625.19 628.23 C 625.54 632.23 625.6 636.25 625.37 640.26 C 625.18 643.86 624.73 647.44 624.02 650.98 C 623.37 654.27 622.47 657.52 621.33 660.68 C 620.12 664.03 618.65 667.29 616.93 670.42 C 615.34 673.32 613.5 676.09 611.45 678.69 C 609.43 681.24 607.19 683.63 604.77 685.81 C 602.24 688.09 599.54 690.17 596.68 692.01 C 593.93 693.79 591.04 695.35 588.05 696.69 C 584.89 698.09 581.63 699.27 578.3 700.2 C 574.62 701.23 570.88 701.99 567.09 702.48 C 562.73 703.03 558.33 703.31 553.93 703.31 L 553.93 703.31 Z  M 822.41 703.31 C 818.18 703.31 813.97 703.07 809.77 702.58 C 805.71 702.11 801.68 701.4 797.71 700.45 C 793.75 699.5 789.84 698.32 786.02 696.91 C 782.1 695.46 778.27 693.78 774.54 691.89 C 770.82 690 767.21 687.91 763.72 685.62 C 760.28 683.37 756.96 680.92 753.79 678.3 C 750.57 675.64 747.51 672.8 744.6 669.8 C 741.59 666.69 738.74 663.41 736.07 659.99 C 733.45 656.62 731.02 653.11 728.8 649.47 C 726.6 645.87 724.61 642.14 722.84 638.31 C 721.04 634.42 719.47 630.42 718.14 626.35 C 716.74 622.09 715.58 617.77 714.66 613.38 C 713.71 608.82 713.03 604.2 712.63 599.56 C 712.29 595.56 712.23 591.54 712.45 587.53 C 712.65 583.93 713.1 580.35 713.8 576.81 C 714.46 573.52 715.36 570.27 716.5 567.11 C 717.71 563.76 719.18 560.5 720.89 557.37 C 722.49 554.47 724.32 551.7 726.38 549.1 C 728.4 546.55 730.63 544.16 733.06 541.98 C 735.58 539.7 738.29 537.62 741.15 535.78 C 743.9 534 746.78 532.44 749.77 531.1 C 752.94 529.7 756.2 528.52 759.53 527.59 C 763.2 526.56 766.95 525.8 770.73 525.31 C 775.1 524.76 779.49 524.48 783.89 524.48 C 788.11 524.48 792.33 524.72 796.53 525.21 C 800.59 525.68 804.61 526.39 808.59 527.34 C 812.55 528.29 816.45 529.47 820.27 530.88 C 824.2 532.33 828.03 534.01 831.76 535.9 C 835.48 537.79 839.09 539.88 842.57 542.17 C 846.02 544.42 849.33 546.87 852.51 549.49 C 855.73 552.15 858.79 554.99 861.69 557.99 C 864.71 561.1 867.56 564.38 870.22 567.8 C 872.85 571.17 875.28 574.68 877.5 578.32 C 879.7 581.92 881.69 585.65 883.46 589.48 C 885.25 593.37 886.82 597.37 888.16 601.44 C 889.56 605.7 890.72 610.02 891.64 614.41 C 892.59 618.97 893.27 623.59 893.67 628.23 C 894.01 632.23 894.07 636.25 893.85 640.26 C 893.65 643.86 893.2 647.44 892.5 650.98 C 891.84 654.27 890.94 657.52 889.8 660.68 C 888.59 664.03 887.12 667.29 885.4 670.42 C 883.81 673.32 881.98 676.09 879.92 678.69 C 877.9 681.24 875.66 683.63 873.24 685.81 C 870.71 688.09 868.01 690.17 865.15 692.01 C 862.4 693.79 859.51 695.35 856.52 696.69 C 853.36 698.09 850.1 699.27 846.77 700.2 C 843.09 701.23 839.35 701.99 835.56 702.48 C 831.2 703.03 826.81 703.31 822.41 703.31 L 822.41 703.31 Z  M 1471.42 704.98 C 1466.23 704.98 1461.04 704.67 1455.88 704.04 C 1451.62 703.52 1447.39 702.69 1443.24 701.55 C 1439.65 700.57 1436.13 699.33 1432.72 697.83 C 1429.64 696.48 1426.68 694.89 1423.86 693.06 C 1420.82 691.09 1417.98 688.85 1415.35 686.36 C 1413 684.13 1410.89 681.66 1409.05 678.99 C 1408.15 677.7 1407.32 676.36 1406.56 674.98 C 1405.79 673.58 1405.09 672.15 1404.46 670.68 C 1403.82 669.17 1403.25 667.62 1402.76 666.05 C 1402.24 664.4 1401.81 662.71 1401.45 661.01 C 1401.07 659.21 1400.79 657.39 1400.6 655.56 C 1400.44 654 1400.38 652.44 1400.41 650.88 C 1400.44 649.51 1400.55 648.13 1400.75 646.77 C 1400.93 645.55 1401.18 644.34 1401.52 643.15 C 1401.84 642.01 1402.24 640.91 1402.71 639.83 C 1403.17 638.78 1403.71 637.76 1404.31 636.78 C 1404.92 635.78 1405.6 634.82 1406.34 633.92 C 1407.14 632.95 1408 632.03 1408.91 631.18 C 1409.87 630.28 1410.91 629.45 1412 628.72 C 1413.31 627.84 1414.67 627.05 1416.08 626.37 C 1417.65 625.6 1419.27 624.93 1420.93 624.37 C 1423 623.67 1425.1 623.07 1427.24 622.59 C 1428.1 622.39 1428.97 622.21 1429.84 622.04 C 1430.79 621.86 1431.74 621.7 1432.69 621.55 C 1435.65 621.09 1438.62 620.75 1441.6 620.55 C 1445.41 620.29 1449.22 620.16 1453.03 620.16 L 1528.08 620.16 L 1536.13 658.6 C 1535.32 662.36 1534.21 666.04 1532.83 669.63 C 1531.57 672.86 1530.02 675.96 1528.19 678.89 C 1526.48 681.62 1524.53 684.18 1522.34 686.54 C 1520.15 688.89 1517.75 691.03 1515.16 692.94 C 1512.66 694.77 1510 696.38 1507.22 697.74 C 1504.14 699.25 1500.94 700.51 1497.66 701.5 C 1493.85 702.65 1489.96 703.49 1486.01 704.02 C 1481.17 704.66 1476.3 704.98 1471.42 704.98 L 1471.42 704.98 Z  M 2232.32 703.31 C 2228.09 703.31 2223.88 703.07 2219.68 702.58 C 2215.62 702.11 2211.59 701.4 2207.62 700.45 C 2203.66 699.5 2199.75 698.32 2195.93 696.91 C 2192.01 695.46 2188.18 693.78 2184.45 691.89 C 2180.73 690 2177.12 687.91 2173.63 685.62 C 2170.19 683.37 2166.87 680.92 2163.7 678.3 C 2160.48 675.64 2157.42 672.8 2154.51 669.8 C 2151.5 666.69 2148.65 663.41 2145.98 659.99 C 2143.36 656.62 2140.93 653.11 2138.71 649.47 C 2136.51 645.87 2134.52 642.14 2132.75 638.31 C 2130.95 634.42 2129.38 630.42 2128.05 626.35 C 2126.65 622.09 2125.49 617.77 2124.57 613.38 C 2123.62 608.82 2122.94 604.2 2122.54 599.56 C 2122.2 595.56 2122.14 591.54 2122.36 587.53 C 2122.56 583.93 2123.01 580.35 2123.71 576.81 C 2124.37 573.52 2125.27 570.27 2126.41 567.11 C 2127.62 563.76 2129.09 560.5 2130.8 557.37 C 2132.4 554.47 2134.23 551.7 2136.29 549.1 C 2138.31 546.55 2140.54 544.16 2142.97 541.98 C 2145.49 539.7 2148.2 537.62 2151.06 535.78 C 2153.81 534 2156.69 532.44 2159.68 531.1 C 2162.85 529.7 2166.11 528.52 2169.44 527.59 C 2173.11 526.56 2176.86 525.8 2180.64 525.31 C 2185.01 524.76 2189.4 524.48 2193.8 524.48 C 2198.02 524.48 2202.23 524.72 2206.41 525.2 C 2210.48 525.67 2214.52 526.38 2218.51 527.33 C 2222.5 528.28 2226.43 529.46 2230.28 530.87 C 2234.24 532.33 2238.12 534.01 2241.89 535.91 C 2245.65 537.8 2249.3 539.9 2252.83 542.19 C 2256.3 544.45 2259.64 546.9 2262.84 549.53 C 2266.06 552.18 2269.14 555.02 2272.05 558.02 C 2275.06 561.12 2277.91 564.39 2280.57 567.8 C 2283.19 571.17 2285.62 574.68 2287.84 578.32 C 2290.04 581.92 2292.03 585.65 2293.8 589.48 C 2295.6 593.37 2297.17 597.37 2298.5 601.44 C 2299.9 605.7 2301.06 610.02 2301.98 614.41 C 2302.94 618.97 2303.61 623.59 2304.01 628.23 C 2304.35 632.23 2304.41 636.25 2304.19 640.26 C 2303.99 643.86 2303.54 647.44 2302.84 650.98 C 2302.18 654.27 2301.28 657.52 2300.14 660.68 C 2298.94 664.03 2297.47 667.27 2295.75 670.39 C 2294.15 673.29 2292.31 676.05 2290.24 678.65 C 2288.2 681.21 2285.94 683.6 2283.5 685.78 C 2280.93 688.07 2278.19 690.16 2275.29 692.01 C 2272.49 693.79 2269.57 695.36 2266.54 696.7 C 2263.35 698.1 2260.06 699.28 2256.69 700.22 C 2253.01 701.24 2249.25 702 2245.45 702.48 C 2241.09 703.04 2236.71 703.31 2232.32 703.31 L 2232.32 703.31 Z  M 1105.16 692.93 L 1117.32 707.56 C 1117.7 708.02 1117.9 708.6 1117.89 709.19 C 1117.88 709.79 1117.66 710.37 1117.27 710.81 C 1116.14 712.09 1114.93 713.28 1113.63 714.38 C 1112.27 715.55 1110.83 716.63 1109.32 717.61 C 1107.68 718.68 1105.96 719.64 1104.18 720.49 C 1102.19 721.45 1100.14 722.29 1098.05 723.01 C 1094.11 724.37 1090.06 725.38 1085.94 726.04 C 1081.43 726.75 1076.87 727.11 1072.3 727.11 C 1067.1 727.11 1061.91 726.72 1056.77 725.94 C 1052.28 725.26 1047.87 724.18 1043.57 722.73 C 1039.61 721.39 1035.78 719.71 1032.11 717.7 C 1028.54 715.74 1025.14 713.46 1021.97 710.89 C 1018.78 708.3 1015.83 705.43 1013.15 702.32 C 1010.44 699.18 1008.02 695.8 1005.9 692.23 C 1003.63 688.41 1001.71 684.4 1000.14 680.24 C 998.37 675.54 996.96 670.71 995.93 665.8 C 995.93 665.8 995.93 665.8 995.93 665.8 L 966.5 525.31 L 924.93 525.31 L 920.12 502.35 L 961.69 502.35 L 951.71 454.71 L 978.47 454.71 L 988.45 502.35 L 1060.33 502.35 L 1065.14 525.31 L 993.26 525.31 L 1022.04 662.68 C 1022.04 662.68 1022.04 662.68 1022.04 662.68 C 1022.8 666.31 1023.81 669.88 1025.07 673.37 C 1026.11 676.25 1027.39 679.03 1028.89 681.7 C 1030.21 684.04 1031.73 686.26 1033.42 688.35 C 1034.99 690.28 1036.72 692.06 1038.61 693.68 C 1040.52 695.31 1042.57 696.76 1044.75 698 C 1047.02 699.29 1049.4 700.38 1051.87 701.24 C 1054.62 702.2 1057.44 702.9 1060.32 703.35 C 1063.75 703.88 1067.22 704.15 1070.7 704.15 C 1074.27 704.15 1077.83 703.84 1081.35 703.24 C 1084.14 702.75 1086.87 701.98 1089.5 700.92 C 1090.67 700.45 1091.82 699.91 1092.94 699.32 C 1094 698.75 1095.03 698.13 1096.03 697.45 C 1097 696.78 1097.94 696.06 1098.84 695.29 C 1099.74 694.52 1100.6 693.7 1101.41 692.83 C 1101.9 692.3 1102.59 692.01 1103.31 692.03 C 1104.03 692.05 1104.7 692.38 1105.16 692.93 L 1105.16 692.93 Z  M 1260.23 727.11 C 1265.06 727.11 1269.89 726.86 1274.69 726.36 C 1278.96 725.9 1283.2 725.2 1287.39 724.25 C 1291.21 723.38 1294.98 722.28 1298.67 720.97 C 1302.13 719.73 1305.52 718.27 1308.8 716.61 C 1312.27 714.84 1315.6 712.82 1318.77 710.54 C 1321.73 708.41 1324.52 706.03 1327.1 703.44 C 1329.65 700.89 1331.97 698.13 1334.06 695.2 C 1336.23 692.16 1338.15 688.96 1339.8 685.62 C 1340.08 685.06 1340.14 684.41 1339.97 683.81 C 1339.79 683.21 1339.4 682.7 1338.87 682.37 L 1320.49 671.09 C 1319.9 670.73 1319.19 670.63 1318.52 670.81 C 1317.86 670.99 1317.3 671.44 1316.97 672.05 C 1315.59 674.64 1314.01 677.13 1312.25 679.49 C 1310.59 681.72 1308.77 683.81 1306.79 685.74 C 1304.82 687.66 1302.71 689.42 1300.46 691.01 C 1298.12 692.67 1295.65 694.15 1293.09 695.43 C 1290.6 696.68 1288.03 697.77 1285.41 698.69 C 1282.61 699.68 1279.76 700.5 1276.87 701.16 C 1273.7 701.87 1270.49 702.4 1267.26 702.74 C 1263.62 703.12 1259.96 703.31 1256.29 703.31 C 1251.99 703.31 1247.68 703.07 1243.4 702.59 C 1239.27 702.13 1235.17 701.43 1231.11 700.49 C 1227.08 699.56 1223.12 698.39 1219.22 697 C 1215.25 695.58 1211.36 693.94 1207.57 692.08 C 1203.78 690.22 1200.1 688.15 1196.55 685.88 C 1193.06 683.65 1189.71 681.22 1186.5 678.61 C 1183.26 675.97 1180.18 673.16 1177.27 670.17 C 1174.25 667.07 1171.4 663.82 1168.75 660.41 C 1166.13 657.06 1163.72 653.56 1161.51 649.93 C 1159.3 646.31 1157.31 642.57 1155.54 638.72 C 1153.72 634.78 1152.14 630.74 1150.79 626.61 C 1149.37 622.27 1148.18 617.85 1147.25 613.38 C 1146.27 608.73 1145.58 604.02 1145.17 599.28 C 1144.82 595.23 1144.75 591.17 1144.97 587.11 C 1145.17 583.5 1145.62 579.9 1146.32 576.35 C 1146.96 573.07 1147.86 569.84 1148.99 566.69 C 1150.2 563.36 1151.67 560.12 1153.39 557.02 C 1155 554.13 1156.86 551.38 1158.93 548.81 C 1161 546.27 1163.28 543.9 1165.74 541.74 C 1168.35 539.47 1171.14 537.41 1174.08 535.59 C 1176.91 533.85 1179.86 532.31 1182.92 531 C 1186.16 529.62 1189.5 528.46 1192.91 527.54 C 1196.67 526.53 1200.5 525.78 1204.36 525.3 C 1208.81 524.75 1213.29 524.48 1217.78 524.48 C 1221.31 524.48 1224.84 524.65 1228.35 524.99 C 1231.77 525.32 1235.17 525.82 1238.53 526.48 C 1241.87 527.14 1245.17 527.97 1248.43 528.96 C 1251.72 529.96 1254.97 531.12 1258.15 532.43 C 1261.29 533.73 1264.36 535.2 1267.35 536.83 C 1270.35 538.46 1273.27 540.25 1276.08 542.2 C 1278.98 544.2 1281.77 546.35 1284.44 548.64 C 1287.26 551.05 1289.95 553.61 1292.51 556.29 C 1292.95 556.75 1293.54 557.02 1294.17 557.06 C 1294.8 557.1 1295.42 556.9 1295.91 556.49 L 1309.57 545.21 C 1310.1 544.78 1310.42 544.14 1310.47 543.46 C 1310.52 542.78 1310.28 542.1 1309.82 541.6 C 1306.77 538.27 1303.55 535.1 1300.17 532.12 C 1296.86 529.2 1293.41 526.47 1289.8 523.94 C 1286.21 521.41 1282.48 519.08 1278.64 516.96 C 1274.71 514.79 1270.67 512.84 1266.53 511.11 C 1262.42 509.38 1258.23 507.87 1253.97 506.57 C 1249.73 505.27 1245.43 504.19 1241.09 503.32 C 1236.68 502.44 1232.23 501.78 1227.75 501.35 C 1223.13 500.9 1218.48 500.67 1213.84 500.67 C 1208.01 500.67 1202.19 501.03 1196.4 501.73 C 1191.33 502.34 1186.31 503.31 1181.37 504.61 C 1176.89 505.8 1172.5 507.29 1168.23 509.09 C 1164.21 510.78 1160.31 512.77 1156.58 515.03 C 1152.66 517.42 1148.93 520.11 1145.45 523.1 C 1142.14 525.93 1139.08 529.04 1136.31 532.39 C 1133.54 535.75 1131.06 539.33 1128.9 543.11 C 1126.62 547.1 1124.67 551.27 1123.06 555.57 C 1121.53 559.67 1120.32 563.88 1119.43 568.16 C 1118.49 572.68 1117.88 577.27 1117.6 581.88 C 1117.29 586.97 1117.34 592.07 1117.76 597.14 C 1118.24 602.94 1119.08 608.71 1120.27 614.41 C 1121.4 619.78 1122.83 625.08 1124.55 630.29 C 1126.23 635.35 1128.21 640.31 1130.47 645.13 C 1132.72 649.95 1135.25 654.62 1138.05 659.14 C 1140.92 663.76 1144.05 668.21 1147.43 672.48 C 1150.81 676.75 1154.42 680.83 1158.25 684.7 C 1161.98 688.48 1165.93 692.04 1170.07 695.38 C 1174.21 698.72 1178.53 701.82 1183.02 704.67 C 1187.62 707.59 1192.37 710.26 1197.26 712.65 C 1202.13 715.04 1207.13 717.15 1212.23 718.97 C 1217.26 720.76 1222.39 722.26 1227.59 723.46 C 1232.84 724.68 1238.16 725.58 1243.52 726.18 C 1249.07 726.8 1254.65 727.11 1260.23 727.11 L 1260.23 727.11 Z  M 1898.44 500.67 C 1892.72 500.67 1887 501.04 1881.32 501.77 C 1876.46 502.4 1871.64 503.39 1866.93 504.75 C 1862.72 505.95 1858.61 507.47 1854.63 509.3 C 1850.91 511.01 1847.34 513.02 1843.94 515.31 C 1840.34 517.74 1836.95 520.49 1833.81 523.51 C 1830.9 526.33 1828.25 529.41 1825.91 532.72 C 1823.59 536.01 1821.58 539.51 1819.91 543.18 C 1818.95 545.29 1818.09 547.44 1817.34 549.64 C 1815.64 546.93 1813.84 544.3 1811.92 541.74 C 1809.07 537.92 1805.95 534.32 1802.58 530.94 C 1799.33 527.68 1795.86 524.65 1792.18 521.88 C 1788.48 519.1 1784.6 516.59 1780.55 514.36 C 1776.55 512.14 1772.4 510.2 1768.14 508.53 C 1763.79 506.83 1759.34 505.4 1754.81 504.27 C 1750.04 503.08 1745.2 502.19 1740.32 501.61 C 1735.03 500.99 1729.7 500.67 1724.37 500.67 C 1718.82 500.67 1713.28 501.01 1707.78 501.69 C 1703.14 502.25 1698.55 503.16 1694.04 504.4 C 1690.1 505.48 1686.24 506.85 1682.49 508.5 C 1679.07 510 1675.77 511.78 1672.63 513.82 C 1669.28 515.99 1666.14 518.46 1663.22 521.18 C 1660.46 523.77 1657.94 526.6 1655.7 529.66 C 1653.45 532.74 1651.48 536.02 1649.83 539.47 C 1649.38 540.43 1648.94 541.39 1648.53 542.36 L 1640.14 502.35 L 1614.25 502.35 L 1660.99 725.44 L 1687.75 725.44 L 1662.78 606.28 C 1662.02 602.64 1661.42 598.98 1660.97 595.29 C 1660.58 592.13 1660.35 588.94 1660.28 585.76 C 1660.21 582.96 1660.28 580.16 1660.5 577.37 C 1660.68 574.88 1661.01 572.41 1661.47 569.96 C 1661.89 567.69 1662.44 565.45 1663.11 563.25 C 1663.74 561.19 1664.5 559.16 1665.36 557.19 C 1666.2 555.28 1667.15 553.42 1668.21 551.63 C 1669.26 549.84 1670.42 548.12 1671.67 546.47 C 1672.98 544.75 1674.4 543.11 1675.92 541.56 C 1677.42 540.04 1679.01 538.62 1680.68 537.31 C 1682.39 535.98 1684.18 534.75 1686.05 533.64 C 1688.01 532.48 1690.05 531.43 1692.15 530.51 C 1693.12 530.09 1694.11 529.68 1695.11 529.31 C 1696.15 528.92 1697.2 528.55 1698.27 528.22 C 1702.15 526.98 1706.13 526.08 1710.17 525.52 C 1715.18 524.82 1720.23 524.48 1725.28 524.48 C 1732.22 524.44 1739.14 525.15 1745.92 526.58 C 1752.22 527.93 1758.32 530.04 1764.1 532.87 C 1766.86 534.23 1769.54 535.77 1772.11 537.46 C 1774.74 539.18 1777.25 541.07 1779.65 543.1 C 1783.05 545.99 1786.19 549.18 1789.02 552.64 C 1792.04 556.33 1794.74 560.27 1797.1 564.41 C 1799.76 569.1 1802.03 574.01 1803.87 579.08 C 1806.07 585.15 1807.84 591.37 1809.17 597.69 L 1835.93 725.44 L 1862.69 725.44 L 1837.72 606.28 C 1837.72 606.28 1837.72 606.28 1837.72 606.28 C 1836.96 602.64 1836.36 598.98 1835.91 595.29 C 1835.52 592.13 1835.29 588.94 1835.21 585.76 C 1835.15 582.96 1835.22 580.16 1835.43 577.37 C 1835.62 574.88 1835.95 572.41 1836.41 569.96 C 1836.83 567.69 1837.38 565.45 1838.05 563.25 C 1838.68 561.19 1839.44 559.16 1840.3 557.19 C 1841.14 555.28 1842.09 553.42 1843.15 551.63 C 1844.2 549.84 1845.36 548.12 1846.61 546.47 C 1847.92 544.75 1849.34 543.11 1850.86 541.56 C 1852.36 540.04 1853.95 538.63 1855.62 537.31 C 1857.33 535.98 1859.12 534.75 1860.99 533.64 C 1862.95 532.48 1864.99 531.43 1867.09 530.51 C 1868.06 530.09 1869.05 529.68 1870.05 529.31 C 1871.09 528.92 1872.14 528.55 1873.21 528.22 C 1877.09 526.98 1881.07 526.08 1885.11 525.52 C 1890.11 524.82 1895.16 524.48 1900.21 524.48 C 1905.75 524.48 1911.27 524.92 1916.73 525.8 C 1921.54 526.58 1926.26 527.79 1930.85 529.42 C 1933.02 530.19 1935.16 531.06 1937.26 532.02 C 1939.32 532.97 1941.34 534.02 1943.31 535.15 C 1945.29 536.29 1947.21 537.52 1949.07 538.83 C 1950.97 540.17 1952.81 541.6 1954.59 543.1 C 1957.99 545.99 1961.13 549.18 1963.96 552.64 C 1966.98 556.33 1969.68 560.27 1972.04 564.41 C 1974.7 569.1 1976.97 574.01 1978.81 579.08 C 1981.01 585.15 1982.78 591.37 1984.11 597.69 C 1984.11 597.69 1984.11 597.69 1984.11 597.69 L 2010.87 725.44 L 2037.63 725.44 L 2010.3 595 C 2009.4 590.66 2008.32 586.37 2007.07 582.12 C 2005.88 578.06 2004.52 574.06 2002.98 570.12 C 2000.08 562.68 1996.46 555.54 1992.15 548.81 C 1989.23 544.28 1985.96 539.99 1982.38 535.96 C 1978.9 532.03 1975.11 528.39 1971.05 525.06 C 1968.65 523.08 1966.16 521.22 1963.59 519.46 C 1961.07 517.74 1958.47 516.13 1955.8 514.63 C 1953.14 513.14 1950.41 511.77 1947.62 510.52 C 1944.8 509.26 1941.93 508.12 1939.01 507.1 C 1936.01 506.06 1932.96 505.16 1929.88 504.38 C 1926.67 503.58 1923.42 502.91 1920.15 502.37 C 1916.69 501.81 1913.21 501.39 1909.71 501.11 C 1905.96 500.82 1902.2 500.67 1898.44 500.67 L 1898.44 500.67 Z  M 557.87 727.11 C 563.52 727.11 569.17 726.76 574.77 726.06 C 579.73 725.44 584.64 724.47 589.46 723.16 C 593.88 721.95 598.21 720.43 602.42 718.61 C 606.44 716.88 610.32 714.85 614.03 712.53 C 617.9 710.12 621.58 707.39 625.02 704.39 C 628.29 701.53 631.32 698.41 634.07 695.04 C 636.83 691.67 639.29 688.07 641.44 684.28 C 643.71 680.28 645.66 676.11 647.26 671.8 C 648.8 667.69 650.01 663.47 650.91 659.18 C 651.85 654.67 652.47 650.09 652.75 645.49 C 653.06 640.46 653.01 635.41 652.6 630.38 C 652.14 624.67 651.32 618.99 650.14 613.38 C 649.02 608.01 647.59 602.71 645.86 597.5 C 644.18 592.44 642.2 587.48 639.94 582.66 C 637.69 577.84 635.16 573.17 632.36 568.65 C 629.49 564.03 626.36 559.57 622.98 555.31 C 619.6 551.04 615.98 546.95 612.16 543.07 C 608.43 539.29 604.49 535.72 600.36 532.38 C 596.25 529.05 591.95 525.95 587.49 523.1 C 582.93 520.19 578.22 517.53 573.37 515.14 C 568.52 512.74 563.53 510.62 558.43 508.78 C 553.47 506.99 548.4 505.49 543.26 504.29 C 538.13 503.09 532.92 502.19 527.68 501.59 C 522.3 500.98 516.89 500.67 511.48 500.67 C 505.83 500.67 500.19 501.03 494.58 501.73 C 489.62 502.35 484.71 503.32 479.89 504.63 C 475.47 505.84 471.14 507.36 466.93 509.17 C 462.92 510.91 459.04 512.94 455.33 515.26 C 451.45 517.67 447.78 520.4 444.33 523.4 C 441.06 526.26 438.03 529.38 435.28 532.75 C 432.53 536.12 430.06 539.72 427.91 543.51 C 425.64 547.51 423.7 551.68 422.09 555.99 C 420.56 560.1 419.34 564.32 418.44 568.61 C 417.5 573.12 416.89 577.7 416.6 582.3 C 416.29 587.33 416.34 592.38 416.75 597.41 C 417.21 603.12 418.04 608.8 419.21 614.41 C 420.34 619.78 421.77 625.08 423.5 630.29 C 425.17 635.35 427.15 640.31 429.41 645.13 C 431.66 649.95 434.2 654.62 437 659.14 C 439.86 663.76 442.99 668.21 446.37 672.48 C 449.75 676.75 453.37 680.84 457.2 684.72 C 460.93 688.5 464.86 692.07 468.99 695.41 C 473.11 698.74 477.4 701.84 481.87 704.69 C 486.42 707.6 491.13 710.26 495.98 712.65 C 500.84 715.05 505.82 717.17 510.92 719.01 C 515.89 720.8 520.95 722.3 526.09 723.5 C 531.23 724.7 536.43 725.6 541.68 726.2 C 547.05 726.81 552.46 727.11 557.87 727.11 L 557.87 727.11 Z  M 826.34 727.11 C 820.93 727.11 815.52 726.81 810.15 726.2 C 804.9 725.6 799.7 724.7 794.56 723.5 C 789.42 722.3 784.36 720.8 779.39 719.01 C 774.3 717.17 769.31 715.05 764.45 712.65 C 759.61 710.26 754.89 707.6 750.34 704.69 C 745.88 701.84 741.58 698.74 737.46 695.41 C 733.34 692.07 729.4 688.5 725.67 684.72 C 721.84 680.84 718.23 676.75 714.84 672.48 C 711.47 668.21 708.34 663.76 705.47 659.14 C 702.67 654.62 700.13 649.95 697.88 645.13 C 695.62 640.31 693.65 635.35 691.97 630.29 C 690.24 625.08 688.81 619.78 687.68 614.41 C 686.51 608.8 685.69 603.12 685.22 597.41 C 684.81 592.38 684.76 587.33 685.08 582.3 C 685.36 577.7 685.97 573.12 686.92 568.61 C 687.81 564.32 689.03 560.1 690.56 555.99 C 692.17 551.68 694.12 547.51 696.38 543.51 C 698.53 539.72 701 536.12 703.75 532.75 C 706.5 529.38 709.53 526.26 712.81 523.4 C 716.25 520.4 719.92 517.67 723.8 515.26 C 727.51 512.94 731.39 510.91 735.4 509.17 C 739.61 507.36 743.94 505.84 748.36 504.63 C 753.18 503.32 758.09 502.35 763.05 501.73 C 768.66 501.03 774.3 500.67 779.95 500.67 C 785.36 500.67 790.77 500.98 796.15 501.59 C 801.39 502.19 806.6 503.09 811.74 504.29 C 816.87 505.49 821.94 506.99 826.91 508.78 C 832 510.62 836.99 512.74 841.84 515.14 C 846.69 517.53 851.4 520.19 855.96 523.1 C 860.42 525.95 864.72 529.05 868.83 532.38 C 872.96 535.72 876.9 539.29 880.63 543.07 C 884.46 546.95 888.07 551.04 891.46 555.31 C 894.83 559.57 897.96 564.03 900.83 568.65 C 903.63 573.17 906.16 577.84 908.42 582.66 C 910.68 587.48 912.65 592.44 914.33 597.5 C 916.06 602.71 917.49 608.01 918.61 613.38 C 919.79 618.99 920.61 624.67 921.08 630.38 C 921.49 635.41 921.53 640.46 921.22 645.49 C 920.94 650.09 920.32 654.67 919.38 659.18 C 918.49 663.47 917.27 667.69 915.73 671.8 C 914.13 676.11 912.18 680.28 909.91 684.28 C 907.76 688.07 905.3 691.67 902.54 695.04 C 899.79 698.41 896.77 701.53 893.49 704.39 C 890.05 707.39 886.37 710.12 882.5 712.53 C 878.79 714.85 874.91 716.88 870.89 718.61 C 866.69 720.43 862.36 721.95 857.94 723.16 C 853.11 724.47 848.2 725.44 843.24 726.06 C 837.64 726.76 831.99 727.11 826.34 727.11 L 826.34 727.11 Z  M 1440.74 500.67 C 1436.24 500.67 1431.75 500.86 1427.27 501.24 C 1423.06 501.59 1418.87 502.13 1414.71 502.85 C 1410.75 503.54 1406.81 504.4 1402.93 505.44 C 1399.16 506.45 1395.44 507.63 1391.78 508.98 C 1387.89 510.41 1384.07 512.05 1380.34 513.89 C 1376.97 515.55 1373.7 517.4 1370.55 519.44 C 1367.63 521.33 1364.82 523.38 1362.14 525.6 C 1359.59 527.71 1357.17 529.97 1354.9 532.38 C 1354.46 532.84 1354.22 533.45 1354.22 534.08 C 1354.21 534.72 1354.45 535.33 1354.88 535.79 L 1368.86 550.84 C 1369.33 551.34 1370 551.63 1370.69 551.63 C 1371.39 551.63 1372.05 551.35 1372.52 550.84 C 1374.31 548.92 1376.2 547.11 1378.2 545.43 C 1380.34 543.62 1382.58 541.93 1384.91 540.38 C 1387.46 538.67 1390.1 537.11 1392.83 535.7 C 1395.9 534.11 1399.05 532.68 1402.27 531.4 C 1405.27 530.21 1408.33 529.17 1411.44 528.28 C 1414.65 527.36 1417.9 526.6 1421.18 525.99 C 1424.62 525.35 1428.1 524.87 1431.6 524.56 C 1435.34 524.23 1439.1 524.06 1442.86 524.06 C 1448.51 524.06 1454.16 524.46 1459.76 525.25 C 1464.41 525.91 1469 526.97 1473.47 528.4 C 1477.42 529.66 1481.25 531.26 1484.93 533.17 C 1488.35 534.95 1491.61 537.04 1494.66 539.41 C 1497.75 541.81 1500.61 544.49 1503.2 547.43 C 1505.87 550.46 1508.27 553.73 1510.35 557.19 C 1512.64 561.01 1514.59 565.03 1516.16 569.2 C 1518.02 574.12 1519.49 579.18 1520.57 584.32 C 1520.57 584.32 1520.57 584.32 1520.57 584.32 L 1523.62 598.86 L 1449.18 598.86 C 1442.62 598.86 1436.07 599.18 1429.54 599.82 C 1424.63 600.3 1419.77 601.11 1414.97 602.23 C 1411.67 603 1408.43 603.96 1405.24 605.11 C 1402.61 606.06 1400.04 607.2 1397.57 608.51 C 1395.46 609.63 1393.43 610.91 1391.5 612.32 C 1389.77 613.59 1388.14 615 1386.64 616.53 C 1385.23 617.97 1383.91 619.49 1382.69 621.09 C 1381.53 622.61 1380.47 624.21 1379.51 625.87 C 1378.58 627.49 1377.75 629.17 1377.03 630.9 C 1376.31 632.65 1375.7 634.44 1375.21 636.26 C 1374.7 638.15 1374.32 640.07 1374.05 642.01 C 1373.77 644.08 1373.61 646.17 1373.58 648.26 C 1373.54 650.57 1373.64 652.87 1373.88 655.17 C 1374.15 657.75 1374.55 660.33 1375.08 662.87 C 1375.58 665.26 1376.19 667.62 1376.92 669.95 C 1377.62 672.19 1378.43 674.4 1379.34 676.56 C 1380.24 678.68 1381.24 680.76 1382.35 682.78 C 1383.45 684.79 1384.66 686.76 1385.95 688.66 C 1387.27 690.59 1388.69 692.45 1390.19 694.24 C 1391.75 696.09 1393.4 697.87 1395.12 699.57 C 1396.95 701.36 1398.86 703.06 1400.84 704.67 C 1402.97 706.4 1405.18 708.03 1407.45 709.56 C 1411.56 712.32 1415.88 714.75 1420.37 716.82 C 1425.12 719.01 1430.03 720.84 1435.06 722.29 C 1440.62 723.89 1446.29 725.07 1452.03 725.82 C 1458.64 726.68 1465.31 727.11 1471.98 727.11 C 1477.25 727.11 1482.51 726.83 1487.75 726.25 C 1492.13 725.78 1496.48 725.01 1500.76 723.96 C 1504.45 723.06 1508.07 721.91 1511.6 720.53 C 1514.77 719.29 1517.84 717.82 1520.79 716.13 C 1524.01 714.28 1527.07 712.16 1529.93 709.8 C 1532.58 707.63 1535.02 705.22 1537.22 702.6 C 1539.37 700.04 1541.29 697.28 1542.94 694.37 C 1543.33 693.69 1543.7 693 1544.06 692.3 L 1551 725.44 L 1576.9 725.44 L 1547.29 584.14 C 1547.29 584.14 1547.29 584.14 1547.29 584.14 C 1545.81 577.07 1543.79 570.13 1541.23 563.37 C 1539.04 557.57 1536.33 551.99 1533.13 546.68 C 1531.65 544.22 1530.06 541.84 1528.36 539.53 C 1526.72 537.29 1524.97 535.13 1523.12 533.05 C 1521.3 531.01 1519.39 529.05 1517.39 527.19 C 1515.38 525.32 1513.29 523.55 1511.12 521.88 C 1508.97 520.22 1506.76 518.67 1504.48 517.21 C 1502.17 515.74 1499.81 514.37 1497.38 513.11 C 1494.89 511.81 1492.35 510.62 1489.76 509.55 C 1487.06 508.43 1484.32 507.42 1481.55 506.53 C 1475.48 504.59 1469.27 503.16 1462.97 502.26 C 1455.61 501.2 1448.18 500.67 1440.74 500.67 L 1440.74 500.67 Z  M 2191.16 500.67 C 2196.49 500.67 2201.82 500.98 2207.12 501.59 C 2212.3 502.18 2217.44 503.08 2222.51 504.28 C 2227.61 505.48 2232.63 506.98 2237.55 508.77 C 2242.62 510.61 2247.58 512.74 2252.41 515.14 C 2257.23 517.54 2261.91 520.2 2266.43 523.11 C 2270.86 525.95 2275.12 529.04 2279.2 532.35 C 2283.28 535.67 2287.17 539.22 2290.86 542.97 C 2294.64 546.82 2298.2 550.87 2301.54 555.11 C 2304.86 559.31 2307.93 563.71 2310.73 568.27 C 2313.51 572.77 2316.02 577.44 2318.25 582.23 C 2320.52 587.1 2322.49 592.1 2324.17 597.2 C 2325.93 602.51 2327.38 607.91 2328.52 613.38 C 2329.72 619.08 2330.56 624.85 2331.05 630.65 C 2331.48 635.73 2331.54 640.83 2331.25 645.92 C 2330.99 650.53 2330.4 655.11 2329.49 659.64 C 2328.63 663.91 2327.45 668.11 2325.95 672.2 C 2324.38 676.51 2322.47 680.7 2320.22 684.7 C 2318.11 688.48 2315.67 692.07 2312.94 695.43 C 2310.23 698.78 2307.23 701.88 2303.98 704.71 C 2300.58 707.68 2296.94 710.37 2293.1 712.74 C 2289.41 715.03 2285.56 717.03 2281.57 718.75 C 2277.4 720.54 2273.11 722.03 2268.73 723.22 C 2263.97 724.51 2259.12 725.47 2254.21 726.08 C 2248.69 726.77 2243.12 727.11 2237.55 727.11 C 2232.52 727.11 2227.48 726.82 2222.48 726.24 C 2217.57 725.68 2212.7 724.82 2207.89 723.68 C 2203.05 722.53 2198.29 721.09 2193.61 719.38 C 2188.78 717.62 2184.06 715.58 2179.46 713.27 C 2174.89 710.98 2170.45 708.43 2166.16 705.64 C 2161.96 702.91 2157.93 699.94 2154.08 696.75 C 2150.21 693.54 2146.53 690.12 2143.06 686.5 C 2141.86 685.24 2140.67 683.96 2139.52 682.65 L 2165.46 806.5 L 2138.7 806.5 L 2074.98 502.35 L 2100.88 502.35 L 2110.32 547.43 C 2110.99 545.92 2111.7 544.44 2112.46 542.97 C 2114.4 539.22 2116.67 535.65 2119.24 532.29 C 2121.77 528.98 2124.58 525.89 2127.66 523.07 C 2130.86 520.12 2134.3 517.45 2137.95 515.07 C 2141.48 512.78 2145.17 510.77 2149 509.04 C 2152.98 507.25 2157.09 505.75 2161.3 504.56 C 2165.85 503.27 2170.5 502.32 2175.2 501.71 C 2180.49 501.02 2185.82 500.67 2191.16 500.67 L 2191.16 500.67 Z  M 307.62 571.31 C 310.8 572.05 313.95 572.89 317.08 573.84 C 322.15 575.39 327.11 577.29 331.92 579.53 C 336.3 581.58 340.52 583.93 344.56 586.57 C 348.39 589.07 352.02 591.85 355.43 594.9 C 358.94 598.03 362.18 601.44 365.14 605.1 C 368.07 608.72 370.7 612.58 373.01 616.63 C 375.41 620.86 377.46 625.27 379.15 629.83 C 381 634.82 382.47 639.93 383.56 645.14 C 384.3 648.66 384.84 652.22 385.19 655.81 C 385.49 658.9 385.59 662 385.49 665.1 C 385.4 667.85 385.14 670.58 384.69 673.29 C 384.29 675.79 383.71 678.24 382.95 680.65 C 382.23 682.96 381.34 685.21 380.3 687.39 C 379.26 689.55 378.08 691.62 376.74 693.61 C 375.37 695.64 373.86 697.57 372.21 699.39 C 370.45 701.32 368.56 703.13 366.56 704.81 C 365.61 705.61 364.63 706.38 363.62 707.11 C 362.57 707.89 361.49 708.63 360.4 709.33 C 359.53 709.89 358.65 710.43 357.75 710.95 C 356.82 711.49 355.87 712.02 354.92 712.52 C 351.59 714.26 348.14 715.77 344.61 717.03 C 340.37 718.56 336.04 719.83 331.66 720.87 C 330.09 721.23 328.52 721.57 326.94 721.89 C 325.25 722.22 323.55 722.53 321.85 722.81 C 316.49 723.69 311.1 724.32 305.68 724.72 C 298.99 725.2 292.29 725.44 285.59 725.44 L 148.45 725.44 L 86.13 427.98 L 215.65 427.98 C 224.52 427.98 233.38 428.49 242.19 429.52 C 249.57 430.38 256.88 431.75 264.07 433.63 C 270.3 435.26 276.42 437.33 282.37 439.81 C 287.74 442.06 292.93 444.72 297.9 447.77 C 300.65 449.47 303.32 451.3 305.91 453.25 C 308.33 455.08 310.66 457.04 312.89 459.11 C 315.02 461.1 317.04 463.19 318.96 465.38 C 320.83 467.52 322.59 469.76 324.23 472.08 C 325.87 474.4 327.38 476.81 328.76 479.29 C 330.17 481.81 331.45 484.41 332.59 487.06 C 333.78 489.82 334.82 492.64 335.72 495.51 C 336.67 498.55 337.47 501.63 338.13 504.75 C 339.08 509.28 339.67 513.88 339.91 518.5 C 340.11 522.34 339.94 526.2 339.42 530.02 C 338.95 533.39 338.16 536.71 337.06 539.94 C 336.02 542.99 334.67 545.94 333.04 548.73 C 331.36 551.58 329.43 554.27 327.26 556.77 C 325.07 559.29 322.65 561.6 320.04 563.68 C 317.23 565.92 314.22 567.9 311.05 569.59 C 309.92 570.19 308.78 570.76 307.62 571.31 L 307.62 571.31 Z " fill-rule="evenodd" fill="rgb(255,255,255)"/></svg>