<?xml version="1.0" encoding="UTF-8" standalone="no"?><!-- Generator: Gravit.io --><svg xmlns="http://www.w3.org/2000/svg" xmlns:xlink="http://www.w3.org/1999/xlink" style="isolation:isolate" viewBox="485.352 -390 2358.804 806.5" width="2358.804pt" height="806.5pt"><path d=" M 829.114 -203.237 L 689.67 -203.237 L 680.878 -152.987 L 803.153 -152.987 L 790.11 -78.45 L 667.835 -78.45 L 651.422 15.35 L 552.597 15.35 L 603.888 -277.775 L 842.156 -277.775 L 829.114 -203.237 L 829.114 -203.237 Z  M 940.942 -189 L 940.942 -189 Q 971.122 -217.894 1020.116 -217.894 L 1020.116 -217.894 L 1005.462 -134.144 L 1005.462 -134.144 Q 994.449 -135.819 984.817 -135.819 L 984.817 -135.819 L 984.817 -135.819 Q 936.242 -135.819 927.596 -86.406 L 927.596 -86.406 L 909.791 15.35 L 815.154 15.35 L 855.233 -213.706 L 945.265 -213.706 L 940.942 -189 L 940.942 -189 Z  M 1267.799 -99.387 L 1267.799 -99.387 Q 1267.433 -97.294 1262.659 -77.194 L 1262.659 -77.194 L 1103.534 -77.194 L 1103.534 -77.194 Q 1106.288 -64.212 1116.804 -57.303 L 1116.804 -57.303 L 1116.804 -57.303 Q 1127.32 -50.394 1144.907 -50.394 L 1144.907 -50.394 L 1144.907 -50.394 Q 1159.982 -50.394 1170.901 -54.162 L 1170.901 -54.162 L 1170.901 -54.162 Q 1181.82 -57.931 1195.576 -67.144 L 1195.576 -67.144 L 1236.269 -17.312 L 1236.269 -17.312 Q 1196.321 19.538 1129.74 19.538 L 1129.74 19.538 L 1129.74 19.538 Q 1088.283 19.538 1059.552 4.253 L 1059.552 4.253 L 1059.552 4.253 Q 1030.82 -11.031 1018.414 -38.25 L 1018.414 -38.25 L 1018.414 -38.25 Q 1006.008 -65.469 1011.943 -99.387 L 1011.943 -99.387 L 1011.943 -99.387 Q 1017.951 -133.725 1039.636 -160.734 L 1039.636 -160.734 L 1039.636 -160.734 Q 1061.322 -187.744 1093.481 -202.819 L 1093.481 -202.819 L 1093.481 -202.819 Q 1125.641 -217.894 1162.491 -217.894 L 1162.491 -217.894 L 1162.491 -217.894 Q 1197.247 -217.894 1223.514 -204.075 L 1223.514 -204.075 L 1223.514 -204.075 Q 1249.78 -190.256 1262.05 -163.456 L 1262.05 -163.456 L 1262.05 -163.456 Q 1274.32 -136.656 1267.799 -99.387 L 1267.799 -99.387 L 1267.799 -99.387 Z  M 1152.045 -153.406 L 1152.045 -153.406 Q 1137.388 -153.406 1126.365 -145.45 L 1126.365 -145.45 L 1126.365 -145.45 Q 1115.342 -137.494 1109.846 -122.837 L 1109.846 -122.837 L 1183.546 -122.837 L 1183.546 -122.837 Q 1183.106 -137.075 1174.903 -145.241 L 1174.903 -145.241 L 1174.903 -145.241 Q 1166.701 -153.406 1152.045 -153.406 L 1152.045 -153.406 L 1152.045 -153.406 Z  M 1541.243 -99.387 L 1541.243 -99.387 Q 1540.876 -97.294 1536.103 -77.194 L 1536.103 -77.194 L 1376.978 -77.194 L 1376.978 -77.194 Q 1379.732 -64.212 1390.248 -57.303 L 1390.248 -57.303 L 1390.248 -57.303 Q 1400.764 -50.394 1418.351 -50.394 L 1418.351 -50.394 L 1418.351 -50.394 Q 1433.426 -50.394 1444.345 -54.162 L 1444.345 -54.162 L 1444.345 -54.162 Q 1455.264 -57.931 1469.019 -67.144 L 1469.019 -67.144 L 1509.713 -17.312 L 1509.713 -17.312 Q 1469.765 19.538 1403.183 19.538 L 1403.183 19.538 L 1403.183 19.538 Q 1361.727 19.538 1332.995 4.253 L 1332.995 4.253 L 1332.995 4.253 Q 1304.264 -11.031 1291.857 -38.25 L 1291.857 -38.25 L 1291.857 -38.25 Q 1279.451 -65.469 1285.386 -99.387 L 1285.386 -99.387 L 1285.386 -99.387 Q 1291.395 -133.725 1313.08 -160.734 L 1313.08 -160.734 L 1313.08 -160.734 Q 1334.765 -187.744 1366.925 -202.819 L 1366.925 -202.819 L 1366.925 -202.819 Q 1399.085 -217.894 1435.935 -217.894 L 1435.935 -217.894 L 1435.935 -217.894 Q 1470.691 -217.894 1496.957 -204.075 L 1496.957 -204.075 L 1496.957 -204.075 Q 1523.224 -190.256 1535.494 -163.456 L 1535.494 -163.456 L 1535.494 -163.456 Q 1547.764 -136.656 1541.243 -99.387 L 1541.243 -99.387 L 1541.243 -99.387 Z  M 1425.488 -153.406 L 1425.488 -153.406 Q 1410.832 -153.406 1399.809 -145.45 L 1399.809 -145.45 L 1399.809 -145.45 Q 1388.785 -137.494 1383.29 -122.837 L 1383.29 -122.837 L 1456.99 -122.837 L 1456.99 -122.837 Q 1456.55 -137.075 1448.347 -145.241 L 1448.347 -145.241 L 1448.347 -145.241 Q 1440.145 -153.406 1425.488 -153.406 L 1425.488 -153.406 L 1425.488 -153.406 Z  M 1550.897 15.35 L 1605.265 -295.362 L 1699.903 -295.362 L 1645.535 15.35 L 1550.897 15.35 L 1550.897 15.35 Z  M 1830.816 -217.894 L 1830.816 -217.894 Q 1891.116 -217.894 1918.215 -190.884 L 1918.215 -190.884 L 1918.215 -190.884 Q 1945.314 -163.875 1935.496 -107.762 L 1935.496 -107.762 L 1913.954 15.35 L 1826.016 15.35 L 1831.292 -14.8 L 1831.292 -14.8 Q 1808.952 19.538 1760.377 19.538 L 1760.377 19.538 L 1760.377 19.538 Q 1733.158 19.538 1715.754 10.116 L 1715.754 10.116 L 1715.754 10.116 Q 1698.349 0.694 1691.33 -15.428 L 1691.33 -15.428 L 1691.33 -15.428 Q 1684.31 -31.55 1687.827 -51.65 L 1687.827 -51.65 L 1687.827 -51.65 Q 1693.762 -85.569 1722.802 -103.156 L 1722.802 -103.156 L 1722.802 -103.156 Q 1751.842 -120.744 1804.604 -120.744 L 1804.604 -120.744 L 1842.711 -120.744 L 1842.711 -120.744 Q 1842.794 -147.544 1804.269 -147.544 L 1804.269 -147.544 L 1804.269 -147.544 Q 1788.775 -147.544 1772.02 -142.728 L 1772.02 -142.728 L 1772.02 -142.728 Q 1755.265 -137.912 1742.493 -129.537 L 1742.493 -129.537 L 1723.261 -191.931 L 1723.261 -191.931 Q 1745.067 -204.075 1774.123 -210.984 L 1774.123 -210.984 L 1774.123 -210.984 Q 1803.179 -217.894 1830.816 -217.894 L 1830.816 -217.894 L 1830.816 -217.894 Z  M 1798.817 -37.412 L 1798.817 -37.412 Q 1808.867 -37.412 1817.776 -42.856 L 1817.776 -42.856 L 1817.776 -42.856 Q 1826.685 -48.3 1832.359 -59.187 L 1832.359 -59.187 L 1835.143 -75.1 L 1811.693 -75.1 L 1811.693 -75.1 Q 1782.799 -75.1 1779.429 -55.837 L 1779.429 -55.837 L 1779.429 -55.837 Q 1778.036 -47.881 1783.192 -42.647 L 1783.192 -42.647 L 1783.192 -42.647 Q 1788.348 -37.412 1798.817 -37.412 L 1798.817 -37.412 L 1798.817 -37.412 Z  M 2154.929 -217.894 L 2154.929 -217.894 Q 2197.222 -217.894 2218.506 -192.35 L 2218.506 -192.35 L 2218.506 -192.35 Q 2239.789 -166.806 2230.777 -115.3 L 2230.777 -115.3 L 2207.916 15.35 L 2113.279 15.35 L 2133.282 -98.969 L 2133.282 -98.969 Q 2140.169 -138.331 2112.113 -138.331 L 2112.113 -138.331 L 2112.113 -138.331 Q 2096.201 -138.331 2084.418 -127.234 L 2084.418 -127.234 L 2084.418 -127.234 Q 2072.636 -116.137 2068.459 -92.269 L 2068.459 -92.269 L 2049.629 15.35 L 1954.991 15.35 L 1995.071 -213.706 L 2085.102 -213.706 L 2081.145 -191.094 L 2081.145 -191.094 Q 2096.89 -204.494 2115.65 -211.194 L 2115.65 -211.194 L 2115.65 -211.194 Q 2134.41 -217.894 2154.929 -217.894 L 2154.929 -217.894 L 2154.929 -217.894 Z  M 2375.521 19.538 L 2375.521 19.538 Q 2336.577 19.538 2308.437 4.463 L 2308.437 4.463 L 2308.437 4.463 Q 2280.296 -10.612 2267.681 -37.831 L 2267.681 -37.831 L 2267.681 -37.831 Q 2255.066 -65.05 2261.074 -99.387 L 2261.074 -99.387 L 2261.074 -99.387 Q 2267.082 -133.725 2289.186 -160.734 L 2289.186 -160.734 L 2289.186 -160.734 Q 2311.29 -187.744 2344.706 -202.819 L 2344.706 -202.819 L 2344.706 -202.819 Q 2378.122 -217.894 2417.066 -217.894 L 2417.066 -217.894 L 2417.066 -217.894 Q 2458.941 -217.894 2485.522 -199.887 L 2485.522 -199.887 L 2485.522 -199.887 Q 2512.102 -181.881 2517.84 -150.056 L 2517.84 -150.056 L 2438.257 -114.044 L 2438.257 -114.044 Q 2430.133 -144.194 2403.751 -144.194 L 2403.751 -144.194 L 2403.751 -144.194 Q 2387.001 -144.194 2373.853 -132.469 L 2373.853 -132.469 L 2373.853 -132.469 Q 2360.704 -120.744 2356.968 -99.387 L 2356.968 -99.387 L 2356.968 -99.387 Q 2353.157 -77.612 2362.203 -65.887 L 2362.203 -65.887 L 2362.203 -65.887 Q 2371.248 -54.162 2387.998 -54.162 L 2387.998 -54.162 L 2387.998 -54.162 Q 2414.379 -54.162 2433.055 -84.312 L 2433.055 -84.312 L 2500.035 -48.3 L 2500.035 -48.3 Q 2483.16 -16.475 2450.278 1.531 L 2450.278 1.531 L 2450.278 1.531 Q 2417.396 19.538 2375.521 19.538 L 2375.521 19.538 L 2375.521 19.538 Z  M 2772.368 -99.387 L 2772.368 -99.387 Q 2772.001 -97.294 2767.228 -77.194 L 2767.228 -77.194 L 2608.103 -77.194 L 2608.103 -77.194 Q 2610.857 -64.212 2621.373 -57.303 L 2621.373 -57.303 L 2621.373 -57.303 Q 2631.889 -50.394 2649.476 -50.394 L 2649.476 -50.394 L 2649.476 -50.394 Q 2664.551 -50.394 2675.47 -54.162 L 2675.47 -54.162 L 2675.47 -54.162 Q 2686.389 -57.931 2700.144 -67.144 L 2700.144 -67.144 L 2740.838 -17.312 L 2740.838 -17.312 Q 2700.89 19.538 2634.308 19.538 L 2634.308 19.538 L 2634.308 19.538 Q 2592.852 19.538 2564.12 4.253 L 2564.12 4.253 L 2564.12 4.253 Q 2535.389 -11.031 2522.982 -38.25 L 2522.982 -38.25 L 2522.982 -38.25 Q 2510.576 -65.469 2516.511 -99.387 L 2516.511 -99.387 L 2516.511 -99.387 Q 2522.52 -133.725 2544.205 -160.734 L 2544.205 -160.734 L 2544.205 -160.734 Q 2565.89 -187.744 2598.05 -202.819 L 2598.05 -202.819 L 2598.05 -202.819 Q 2630.21 -217.894 2667.06 -217.894 L 2667.06 -217.894 L 2667.06 -217.894 Q 2701.816 -217.894 2728.082 -204.075 L 2728.082 -204.075 L 2728.082 -204.075 Q 2754.349 -190.256 2766.619 -163.456 L 2766.619 -163.456 L 2766.619 -163.456 Q 2778.889 -136.656 2772.368 -99.387 L 2772.368 -99.387 L 2772.368 -99.387 Z  M 2656.613 -153.406 L 2656.613 -153.406 Q 2641.957 -153.406 2630.934 -145.45 L 2630.934 -145.45 L 2630.934 -145.45 Q 2619.91 -137.494 2614.415 -122.837 L 2614.415 -122.837 L 2688.115 -122.837 L 2688.115 -122.837 Q 2687.675 -137.075 2679.472 -145.241 L 2679.472 -145.241 L 2679.472 -145.241 Q 2671.27 -153.406 2656.613 -153.406 L 2656.613 -153.406 L 2656.613 -153.406 Z " fill="rgb(255,255,255)"/><path d=" M 784.374 182.114 L 784.374 182.114 Q 818.075 187.963 839.119 206.765 L 839.119 206.765 L 839.119 206.765 Q 860.162 225.566 866.464 255.649 L 866.464 255.649 L 866.464 255.649 Q 874.255 292.834 850.31 312.889 L 850.31 312.889 L 850.31 312.889 Q 826.365 332.944 770.939 332.944 L 770.939 332.944 L 635.837 332.944 L 574.564 40.475 L 701.006 40.475 L 701.006 40.475 Q 750.37 40.475 781.937 59.903 L 781.937 59.903 L 781.937 59.903 Q 813.504 79.332 821.032 115.264 L 821.032 115.264 L 821.032 115.264 Q 826.284 140.332 816.232 157.463 L 816.232 157.463 L 816.232 157.463 Q 806.181 174.593 784.374 182.114 L 784.374 182.114 Z  M 703.991 58.859 L 600.5 58.859 L 624.921 175.429 L 728.413 175.429 L 728.413 175.429 Q 768.25 175.429 786.577 160.596 L 786.577 160.596 L 786.577 160.596 Q 804.905 145.764 798.865 116.935 L 798.865 116.935 L 798.865 116.935 Q 792.913 88.524 768.371 73.691 L 768.371 73.691 L 768.371 73.691 Q 743.829 58.859 703.991 58.859 L 703.991 58.859 Z  M 767.088 314.56 L 767.088 314.56 Q 811.255 314.56 830.882 299.728 L 830.882 299.728 L 830.882 299.728 Q 850.508 284.896 844.03 253.978 L 844.03 253.978 L 844.03 253.978 Q 837.553 223.059 811.756 208.436 L 811.756 208.436 L 811.756 208.436 Q 785.958 193.812 741.791 193.812 L 741.791 193.812 L 628.773 193.812 L 654.07 314.56 L 767.088 314.56 Z  M 1043.225 334.615 L 1043.225 334.615 Q 1011.182 334.615 982.441 320.41 L 982.441 320.41 L 982.441 320.41 Q 953.7 306.204 933.682 280.926 L 933.682 280.926 L 933.682 280.926 Q 913.663 255.649 907.011 223.895 L 907.011 223.895 L 907.011 223.895 Q 900.358 192.141 909.785 166.863 L 909.785 166.863 L 909.785 166.863 Q 919.212 141.586 942.001 127.38 L 942.001 127.38 L 942.001 127.38 Q 964.789 113.174 996.833 113.174 L 996.833 113.174 L 996.833 113.174 Q 1028.876 113.174 1057.617 127.38 L 1057.617 127.38 L 1057.617 127.38 Q 1086.358 141.586 1106.376 166.863 L 1106.376 166.863 L 1106.376 166.863 Q 1126.394 192.141 1133.047 223.895 L 1133.047 223.895 L 1133.047 223.895 Q 1139.699 255.649 1130.272 280.926 L 1130.272 280.926 L 1130.272 280.926 Q 1120.845 306.204 1098.057 320.41 L 1098.057 320.41 L 1098.057 320.41 Q 1075.268 334.615 1043.225 334.615 L 1043.225 334.615 Z  M 1039.286 315.814 L 1039.286 315.814 Q 1065.267 315.814 1083.385 304.115 L 1083.385 304.115 L 1083.385 304.115 Q 1101.502 292.416 1109.034 271.526 L 1109.034 271.526 L 1109.034 271.526 Q 1116.565 250.635 1110.963 223.895 L 1110.963 223.895 L 1110.963 223.895 Q 1105.361 197.155 1089.076 176.264 L 1089.076 176.264 L 1089.076 176.264 Q 1072.791 155.374 1049.772 143.675 L 1049.772 143.675 L 1049.772 143.675 Q 1026.753 131.976 1000.772 131.976 L 1000.772 131.976 L 1000.772 131.976 Q 974.791 131.976 956.673 143.675 L 956.673 143.675 L 956.673 143.675 Q 938.556 155.374 931.024 176.264 L 931.024 176.264 L 931.024 176.264 Q 923.493 197.155 929.095 223.895 L 929.095 223.895 L 929.095 223.895 Q 934.697 250.635 950.982 271.526 L 950.982 271.526 L 950.982 271.526 Q 967.266 292.416 990.286 304.115 L 990.286 304.115 L 990.286 304.115 Q 1013.305 315.814 1039.286 315.814 L 1039.286 315.814 Z  M 1311.697 334.615 L 1311.697 334.615 Q 1279.653 334.615 1250.913 320.41 L 1250.913 320.41 L 1250.913 320.41 Q 1222.172 306.204 1202.154 280.926 L 1202.154 280.926 L 1202.154 280.926 Q 1182.135 255.649 1175.483 223.895 L 1175.483 223.895 L 1175.483 223.895 Q 1168.83 192.141 1178.257 166.863 L 1178.257 166.863 L 1178.257 166.863 Q 1187.684 141.586 1210.473 127.38 L 1210.473 127.38 L 1210.473 127.38 Q 1233.261 113.174 1265.304 113.174 L 1265.304 113.174 L 1265.304 113.174 Q 1297.348 113.174 1326.089 127.38 L 1326.089 127.38 L 1326.089 127.38 Q 1354.829 141.586 1374.848 166.863 L 1374.848 166.863 L 1374.848 166.863 Q 1394.866 192.141 1401.519 223.895 L 1401.519 223.895 L 1401.519 223.895 Q 1408.171 255.649 1398.744 280.926 L 1398.744 280.926 L 1398.744 280.926 Q 1389.317 306.204 1366.529 320.41 L 1366.529 320.41 L 1366.529 320.41 Q 1343.74 334.615 1311.697 334.615 L 1311.697 334.615 Z  M 1307.758 315.814 L 1307.758 315.814 Q 1333.739 315.814 1351.856 304.115 L 1351.856 304.115 L 1351.856 304.115 Q 1369.974 292.416 1377.505 271.526 L 1377.505 271.526 L 1377.505 271.526 Q 1385.037 250.635 1379.435 223.895 L 1379.435 223.895 L 1379.435 223.895 Q 1373.833 197.155 1357.548 176.264 L 1357.548 176.264 L 1357.548 176.264 Q 1341.263 155.374 1318.244 143.675 L 1318.244 143.675 L 1318.244 143.675 Q 1295.225 131.976 1269.243 131.976 L 1269.243 131.976 L 1269.243 131.976 Q 1243.262 131.976 1225.145 143.675 L 1225.145 143.675 L 1225.145 143.675 Q 1207.027 155.374 1199.496 176.264 L 1199.496 176.264 L 1199.496 176.264 Q 1191.965 197.155 1197.567 223.895 L 1197.567 223.895 L 1197.567 223.895 Q 1203.169 250.635 1219.453 271.526 L 1219.453 271.526 L 1219.453 271.526 Q 1235.738 292.416 1258.757 304.115 L 1258.757 304.115 L 1258.757 304.115 Q 1281.777 315.814 1307.758 315.814 L 1307.758 315.814 Z  M 1588.589 304.533 L 1600.746 319.156 L 1600.746 319.156 Q 1594.094 326.677 1582.585 330.646 L 1582.585 330.646 L 1582.585 330.646 Q 1571.075 334.615 1557.652 334.615 L 1557.652 334.615 L 1557.652 334.615 Q 1528.206 334.615 1508.902 318.947 L 1508.902 318.947 L 1508.902 318.947 Q 1489.598 303.28 1483.733 275.286 L 1483.733 275.286 L 1453.885 132.812 L 1412.315 132.812 L 1408.551 114.846 L 1450.121 114.846 L 1440.142 67.215 L 1461.793 67.215 L 1471.772 114.846 L 1543.653 114.846 L 1547.417 132.812 L 1475.536 132.812 L 1504.947 273.197 L 1504.947 273.197 Q 1509.411 294.505 1522.339 305.577 L 1522.339 305.577 L 1522.339 305.577 Q 1535.268 316.65 1556.053 316.65 L 1556.053 316.65 L 1556.053 316.65 Q 1577.271 316.65 1588.589 304.533 L 1588.589 304.533 Z  M 1745.582 334.615 L 1745.582 334.615 Q 1712.672 334.615 1683.715 320.41 L 1683.715 320.41 L 1683.715 320.41 Q 1654.758 306.204 1634.74 280.926 L 1634.74 280.926 L 1634.74 280.926 Q 1614.721 255.649 1608.069 223.895 L 1608.069 223.895 L 1608.069 223.895 Q 1601.329 191.723 1610.756 166.446 L 1610.756 166.446 L 1610.756 166.446 Q 1620.182 141.168 1643.231 127.171 L 1643.231 127.171 L 1643.231 127.171 Q 1666.28 113.174 1699.19 113.174 L 1699.19 113.174 L 1699.19 113.174 Q 1726.47 113.174 1750.915 123.411 L 1750.915 123.411 L 1750.915 123.411 Q 1775.36 133.647 1793.33 153.285 L 1793.33 153.285 L 1779.672 164.566 L 1779.672 164.566 Q 1764.134 148.271 1744.457 140.123 L 1744.457 140.123 L 1744.457 140.123 Q 1724.779 131.976 1703.128 131.976 L 1703.128 131.976 L 1703.128 131.976 Q 1676.714 131.976 1658.12 143.466 L 1658.12 143.466 L 1658.12 143.466 Q 1639.526 154.956 1631.994 175.846 L 1631.994 175.846 L 1631.994 175.846 Q 1624.463 196.737 1630.153 223.895 L 1630.153 223.895 L 1630.153 223.895 Q 1635.842 251.053 1652.127 271.944 L 1652.127 271.944 L 1652.127 271.944 Q 1668.412 292.834 1691.82 304.324 L 1691.82 304.324 L 1691.82 304.324 Q 1715.229 315.814 1741.643 315.814 L 1741.643 315.814 L 1741.643 315.814 Q 1763.294 315.814 1779.557 307.667 L 1779.557 307.667 L 1779.557 307.667 Q 1795.821 299.519 1804.531 283.224 L 1804.531 283.224 L 1822.916 294.505 L 1822.916 294.505 Q 1813.174 314.143 1793.018 324.379 L 1793.018 324.379 L 1793.018 324.379 Q 1772.862 334.615 1745.582 334.615 L 1745.582 334.615 Z  M 1926.091 113.174 L 1926.091 113.174 Q 1968.094 113.174 1994.944 133.856 L 1994.944 133.856 L 1994.944 133.856 Q 2021.794 154.538 2030.197 194.648 L 2030.197 194.648 L 2059.17 332.944 L 2038.386 332.944 L 2030.245 294.088 L 2030.245 294.088 Q 2023.446 313.307 2004.893 323.961 L 2004.893 323.961 L 2004.893 323.961 Q 1986.34 334.615 1957.328 334.615 L 1957.328 334.615 L 1957.328 334.615 Q 1919.655 334.615 1894.199 317.485 L 1894.199 317.485 L 1894.199 317.485 Q 1868.743 300.355 1862.878 272.361 L 1862.878 272.361 L 1862.878 272.361 Q 1857.189 245.203 1873.779 228.282 L 1873.779 228.282 L 1873.779 228.282 Q 1890.369 211.361 1934.537 211.361 L 1934.537 211.361 L 2012.048 211.361 L 2008.371 193.812 L 2008.371 193.812 Q 2001.981 163.312 1981.551 147.435 L 1981.551 147.435 L 1981.551 147.435 Q 1961.12 131.558 1928.211 131.558 L 1928.211 131.558 L 1928.211 131.558 Q 1905.694 131.558 1886.701 139.079 L 1886.701 139.079 L 1886.701 139.079 Q 1867.708 146.6 1856.045 159.134 L 1856.045 159.134 L 1842.068 144.093 L 1842.068 144.093 Q 1855.892 129.469 1878.001 121.322 L 1878.001 121.322 L 1878.001 121.322 Q 1900.11 113.174 1926.091 113.174 L 1926.091 113.174 Z  M 1956.77 317.485 L 1956.77 317.485 Q 1984.917 317.485 2001.993 304.951 L 2001.993 304.951 L 2001.993 304.951 Q 2019.069 292.416 2024.04 268.601 L 2024.04 268.601 L 2015.461 227.655 L 1938.384 227.655 L 1938.384 227.655 Q 1905.041 227.655 1892.553 239.354 L 1892.553 239.354 L 1892.553 239.354 Q 1880.065 251.053 1884.354 271.526 L 1884.354 271.526 L 1884.354 271.526 Q 1888.818 292.834 1907.855 305.16 L 1907.855 305.16 L 1907.855 305.16 Q 1926.892 317.485 1956.77 317.485 L 1956.77 317.485 Z  M 2383.793 113.174 L 2383.793 113.174 Q 2425.795 113.174 2454.817 136.99 L 2454.817 136.99 L 2454.817 136.99 Q 2483.839 160.805 2493.205 205.511 L 2493.205 205.511 L 2519.903 332.944 L 2498.252 332.944 L 2471.904 207.182 L 2471.904 207.182 Q 2464.202 170.415 2441.555 151.195 L 2441.555 151.195 L 2441.555 151.195 Q 2418.909 131.976 2385.566 131.976 L 2385.566 131.976 L 2385.566 131.976 Q 2347.461 131.976 2329.975 154.956 L 2329.975 154.956 L 2329.975 154.956 Q 2312.488 177.936 2320.629 216.792 L 2320.629 216.792 L 2344.963 332.944 L 2323.312 332.944 L 2296.965 207.182 L 2296.965 207.182 Q 2289.262 170.415 2266.616 151.195 L 2266.616 151.195 L 2266.616 151.195 Q 2243.969 131.976 2210.627 131.976 L 2210.627 131.976 L 2210.627 131.976 Q 2172.521 131.976 2155.035 154.956 L 2155.035 154.956 L 2155.035 154.956 Q 2137.549 177.936 2145.689 216.792 L 2145.689 216.792 L 2170.023 332.944 L 2148.372 332.944 L 2102.68 114.846 L 2123.465 114.846 L 2133.269 161.641 L 2133.269 161.641 Q 2139.713 138.661 2159.344 125.918 L 2159.344 125.918 L 2159.344 125.918 Q 2178.975 113.174 2209.719 113.174 L 2209.719 113.174 L 2209.719 113.174 Q 2240.463 113.174 2264.699 126.545 L 2264.699 126.545 L 2264.699 126.545 Q 2288.934 139.915 2303.455 165.819 L 2303.455 165.819 L 2303.455 165.819 Q 2309.636 141.586 2330.693 127.38 L 2330.693 127.38 L 2330.693 127.38 Q 2351.749 113.174 2383.793 113.174 L 2383.793 113.174 Z  M 2676.513 113.174 L 2676.513 113.174 Q 2708.124 113.174 2736.648 127.38 L 2736.648 127.38 L 2736.648 127.38 Q 2765.172 141.586 2784.93 166.655 L 2784.93 166.655 L 2784.93 166.655 Q 2804.688 191.723 2811.428 223.895 L 2811.428 223.895 L 2811.428 223.895 Q 2818.168 256.067 2808.958 281.344 L 2808.958 281.344 L 2808.958 281.344 Q 2799.748 306.622 2777.132 320.619 L 2777.132 320.619 L 2777.132 320.619 Q 2754.516 334.615 2722.906 334.615 L 2722.906 334.615 L 2722.906 334.615 Q 2693.027 334.615 2665.934 321.037 L 2665.934 321.037 L 2665.934 321.037 Q 2638.84 307.458 2620.339 283.224 L 2620.339 283.224 L 2647.737 414 L 2626.086 414 L 2563.413 114.846 L 2584.197 114.846 L 2594.964 166.237 L 2594.964 166.237 Q 2603.136 141.168 2624.669 127.171 L 2624.669 127.171 L 2624.669 127.171 Q 2646.202 113.174 2676.513 113.174 L 2676.513 113.174 Z  M 2717.668 315.814 L 2717.668 315.814 Q 2743.649 315.814 2761.983 304.115 L 2761.983 304.115 L 2761.983 304.115 Q 2780.317 292.416 2787.848 271.526 L 2787.848 271.526 L 2787.848 271.526 Q 2795.38 250.635 2789.778 223.895 L 2789.778 223.895 L 2789.778 223.895 Q 2784.175 197.155 2767.891 176.264 L 2767.891 176.264 L 2767.891 176.264 Q 2751.606 155.374 2728.37 143.675 L 2728.37 143.675 L 2728.37 143.675 Q 2705.134 131.976 2679.153 131.976 L 2679.153 131.976 L 2679.153 131.976 Q 2653.172 131.976 2635.055 143.675 L 2635.055 143.675 L 2635.055 143.675 Q 2616.937 155.374 2609.406 176.264 L 2609.406 176.264 L 2609.406 176.264 Q 2601.874 197.155 2607.477 223.895 L 2607.477 223.895 L 2607.477 223.895 Q 2613.079 250.635 2629.363 271.526 L 2629.363 271.526 L 2629.363 271.526 Q 2645.648 292.416 2668.667 304.115 L 2668.667 304.115 L 2668.667 304.115 Q 2691.687 315.814 2717.668 315.814 L 2717.668 315.814 Z " fill="rgb(255,255,255)" vector-effect="non-scaling-stroke" stroke-width="5" stroke="rgb(255,255,255)" stroke-linejoin="miter" stroke-linecap="square" stroke-miterlimit="3"/></svg>